<svg xmlns="http://www.w3.org/2000/svg" width="814" height="110" fill="none" viewBox="0 0 814 110"><path fill="#fff" d="M113 9.08971e-05H136V109.776H113V9.08971e-05Z"/><path fill="#fff" d="M759.389 0.00018245H782.131V109.812L759.389 109.776V0.00018245Z"/><path fill="#fff" d="M791.237 0.00018245H814V109.776L791.237 109.776V0.00018245Z"/><path fill="#fff" d="M314.5 0.00018245H338L287 109.776H264L314.5 0.00018245Z"/><path fill="#fff" d="M338 0.00018245H314.5L366 109.776L388.5 109.776L338 0.00018245Z"/><path fill="#fff" d="M396.002 0.00018245H496.5V22.3327H418.832L417.932 109.776H396.002V0.00018245Z"/><path fill="#fff" d="M645.003 0.276038L668.003 0.276061V109.776H645.003V0.276038Z"/><path fill="#fff" d="M721 0.00018245H749L659.503 91.2761L645.003 76.4365L721 0.00018245Z"/><path fill="#fff" d="M672.004 60.0396L688.267 43.7761L749 109.776H721L672.004 60.0396Z"/><path fill="#fff" d="M0 23.7761L2.15803e-05 0.000113785C39.4432 0.000113785 61.5574 0.000113785 101.001 0.000113785V23.7761H0Z"/><path fill="#fff" d="M78.0004 0.776122L101.001 0.000113785V109.776H78.0004V0.776122Z"/><path fill="#fff" d="M473.5 0.77611L496.5 0.00018245V57.7761H473.5V0.77611Z"/><path fill="#fff" d="M414 66.7761L414 43.7761H520V66.7761H414Z"/><path fill="#fff" d="M414 66.7761L414 43.7761L508 43.7761V66.7761H414Z"/><path fill="#fff" d="M296 66.7761V43.7761H357V66.7761H296Z"/><path fill="#fff" d="M607 43.7761L630 43.7761V109.776L607 107.776V43.7761Z"/><path fill="#fff" d="M536 109.776V84.7761H630V109.776H536Z"/><path fill="#fff" d="M536 66.7761V43.7761L630 43.7761V66.7761H536Z"/><path fill="#fff" d="M536 23.7761V0.00018245H630V23.7761H536Z"/><path fill="#fff" d="M497 59.7761L520 59.7761V109.776H497V59.7761Z"/><path fill="#fff" d="M148.747 17.2761L170.742 9.08971e-05L252.821 91.5566L236 109.776L148.747 17.2761Z"/><path fill="#fff" d="M236 0H259V109.776H236V0Z"/><path fill="#fff" d="M148 0.000159562L170.742 9.08971e-05V110L148 110V0.000159562Z"/><path fill="#fff" d="M414 66.7761L414 43.7761L508 43.7761V66.7761H414Z"/><path fill="#fff" d="M536 0.00018245L559 0.776071V44.7761H536V0.00018245Z"/></svg>