<svg width="800" height="200" viewBox="0 0 800 200" fill="none" xmlns="http://www.w3.org/2000/svg">
<path d="M0 0H800V200H0V0Z" fill="black"/>
<path d="M60.077 69.125H25V51.75H116.784V150H60.077V69.125Z" fill="white"/>
<path d="M124.966 51.75H145.2V150H124.966V51.75Z" fill="white"/>
<path d="M153.383 52.8125H188.396L235.081 128V52.8125H255.379V150H227.977L173.49 67.0625V150H153.383V52.8125Z" fill="white"/>
<path d="M263.308 51.75H331.178L379.131 150H335.555L284.493 66V150H263.308V51.75Z" fill="white"/>
<path d="M339.107 51.75H437.931C445.543 51.75 452.14 52.5417 457.722 54.125C463.303 55.6667 467.934 57.9167 471.613 60.875C475.292 63.8333 478.019 67.4375 479.795 71.6875C481.614 75.9375 482.523 80.75 482.523 86.125C482.523 89.75 482.079 93.2083 481.191 96.5C480.303 99.75 478.928 102.75 477.068 105.5C475.249 108.25 472.945 110.708 470.154 112.875C467.363 115 464.086 116.771 460.322 118.188L482 151H448.397L387.504 66V150L339.107 51.75Z" fill="white"/>
<path d="M608.178 52.3125H687.5L641 105.5L687.5 150.5H679.601H608.178V52.3125Z" fill="white"/>
<path d="M699.5 53H725.068V105.008V151H699.5L652.5 105.008L699.5 53Z" fill="white"/>
<path d="M731.655 53H758V151H731.655V53Z" fill="white"/>
<path d="M490 151L472.5 124.546H576.797L600 151H490ZM600 151L576.797 124.546V113.092L600 90.6504V151ZM576.797 113.092C571.784 111.292 490 113.092 490 113.092V90.4252H513.203L600 90.6504L576.797 113.092ZM490 52H600V83.5H490V52Z" fill="white"/>
</svg>
